<svg version="1.1" id="Layer_1" xmlns="http://www.w3.org/2000/svg" xmlns:xlink="http://www.w3.org/1999/xlink" x="0px" y="0px"
	 width="100%" viewBox="0 0 500 500" enable-background="new 0 0 500 500" xml:space="preserve">
<path fill="#000000" opacity="1.000000" stroke="none" 
	d="
M220.000000,501.000000 
	C146.666687,501.000000 73.833366,501.000000 1.000039,501.000000 
	C1.000026,334.333405 1.000026,167.666779 1.000013,1.000129 
	C167.666565,1.000086 334.333130,1.000086 500.999756,1.000043 
	C500.999847,167.666534 500.999847,334.333069 500.999939,500.999817 
	C407.500000,501.000000 314.000000,501.000000 220.000000,501.000000 
M214.000305,322.011841 
	C214.000305,322.011841 214.061188,322.012085 213.927078,321.468079 
	C213.614944,321.286804 213.302811,321.105499 212.989868,321.008942 
	C212.989868,321.008942 213.074554,321.011353 212.922607,320.472656 
	C212.612259,320.286346 212.301910,320.100067 212.005035,319.990509 
	C212.005035,319.990509 212.081573,319.975800 211.880219,319.351807 
	C210.552414,318.304962 209.224609,317.258148 207.475250,316.063019 
	C207.475250,316.063019 207.032135,316.005127 206.869247,315.492859 
	C206.569275,315.314972 206.269318,315.137115 205.848938,314.493286 
	C205.663773,314.186737 205.392334,314.042389 204.765747,313.385437 
	C201.314972,311.946014 197.878067,309.350555 194.410492,309.308899 
	C187.287903,309.223389 180.148880,310.505188 172.577301,311.051880 
	C172.577301,311.051880 172.111053,310.979065 171.746552,310.239960 
	C168.883392,309.708374 165.605820,309.886963 163.238647,308.505554 
	C157.302521,305.041473 151.778442,300.871277 145.995590,296.248291 
	C143.284897,290.486603 140.574219,284.724884 138.007431,278.047394 
	C138.270538,271.690552 138.533646,265.333740 138.969452,258.524750 
	C138.969452,258.524750 139.007797,258.042267 139.636536,257.743103 
	C139.781189,256.840637 139.925842,255.938171 140.009567,255.002182 
	C140.009567,255.002182 140.041672,255.063889 140.623047,254.819931 
	C140.778046,254.217514 140.933044,253.615082 141.741333,252.725403 
	C145.184875,248.177551 148.628418,243.629700 152.050903,239.028854 
	C152.050903,239.028854 152.022263,239.077835 152.668442,239.025620 
	C153.126617,238.686890 153.584793,238.348175 154.690063,237.714233 
	C159.117569,235.752838 163.545090,233.791443 168.826447,231.977463 
	C174.999557,230.934402 180.914719,231.003876 187.206299,232.652008 
	C193.274490,234.241608 199.518692,232.376877 204.623383,226.847214 
	C207.751709,223.563828 210.880035,220.280441 214.637848,216.737625 
	C216.775803,214.197800 218.913742,211.657974 221.672821,208.847626 
	C221.123032,206.890228 221.161743,203.807785 219.926163,203.161469 
	C212.893250,199.482681 205.574081,196.344604 198.294281,193.154984 
	C197.591232,192.846954 196.491241,193.444901 195.620453,193.613571 
	C195.835205,196.935059 196.031052,199.963943 195.907852,203.670517 
	C193.801071,209.000473 191.334183,214.103287 186.144958,218.018097 
	C183.418808,219.101151 180.692657,220.184204 177.076294,221.097656 
	C169.726639,222.235336 163.754471,219.089874 158.084091,214.919327 
	C158.084091,214.919327 158.012680,214.910233 157.904419,214.443893 
	C157.724243,214.143845 157.459229,213.989044 156.983017,213.460205 
	C156.940506,213.287201 156.898010,213.114197 156.782593,212.235535 
	C155.348648,209.834930 154.144531,208.724838 152.282196,212.118362 
	C150.919205,214.602036 148.794266,216.667557 146.924683,218.921402 
	C146.924683,218.921402 146.913651,219.004974 146.110535,219.052643 
	C143.416245,219.425201 140.721954,219.797760 137.516678,220.050049 
	C137.347473,220.094604 137.178253,220.139160 136.262451,220.040070 
	C133.595428,217.954926 130.661957,216.127945 128.328491,213.719620 
	C125.375351,210.671768 124.674301,210.355637 122.889832,212.192642 
	C126.703880,217.992783 130.356766,223.547836 134.029663,229.973648 
	C134.461349,240.005173 130.268051,247.647888 121.390663,253.032883 
	C120.876640,253.359314 120.362617,253.685760 119.032364,253.968246 
	C115.704071,254.381699 112.375771,254.795151 108.277306,255.063492 
	C105.385277,253.937683 102.493248,252.811890 99.152786,251.511536 
	C98.665146,257.106506 98.248405,261.888031 97.791595,267.129333 
	C104.287491,264.176514 111.967735,270.701355 111.817024,276.318909 
	C111.738991,279.227448 109.965836,282.090515 108.997543,284.994324 
	C108.997543,284.994324 108.976486,284.956177 108.327011,285.041718 
	C107.534447,285.685730 106.741875,286.329742 105.999634,286.998505 
	C105.999634,286.998505 105.974419,286.948425 105.096878,287.017303 
	C103.065224,287.017303 101.033562,287.017303 97.940201,287.017303 
	C100.921944,294.092010 103.448395,300.086426 106.154793,306.635925 
	C106.489380,307.099670 106.823975,307.563416 107.014481,308.733643 
	C108.308243,310.853729 109.602013,312.973846 110.961540,315.804169 
	C116.425400,321.814148 121.610054,328.116852 127.472954,333.708435 
	C130.329315,336.432587 134.451645,337.829285 138.656754,340.143311 
	C143.083130,342.126129 147.509506,344.108948 152.262085,346.755768 
	C159.393173,350.424255 167.108261,350.848328 175.758301,350.957336 
	C184.865417,349.570892 193.972534,348.184448 203.811935,346.912079 
	C211.574936,343.074097 219.337921,339.236115 228.189789,334.859802 
	C225.605423,333.394928 224.380676,332.700714 222.847977,331.380981 
	C220.237732,328.593079 217.627487,325.805145 214.906418,322.487732 
	C214.609131,322.309387 214.311829,322.131012 214.000305,322.011841 
M108.005463,215.987015 
	C108.005463,215.987015 107.971306,215.933243 107.330452,215.979187 
	C106.844864,216.297272 106.359276,216.615356 105.240982,217.015686 
	C104.487686,217.661041 103.734390,218.306412 102.317337,219.047852 
	C101.180626,220.008057 100.043907,220.968262 98.278931,222.199615 
	C97.243195,224.135696 96.207466,226.071777 95.035362,228.803268 
	C94.757507,230.866898 94.479652,232.930527 94.058365,235.753906 
	C95.020103,238.109573 95.753731,240.592499 96.984261,242.798218 
	C101.586647,251.047989 113.237045,253.992661 120.995064,248.998138 
	C120.995064,248.998138 121.005371,249.031403 121.520859,248.893631 
	C121.708664,248.601776 121.896469,248.309921 122.759277,247.988190 
	C123.869209,246.992233 124.979141,245.996292 126.717979,244.721283 
	C127.752434,242.453217 128.786896,240.185165 129.967010,237.107193 
	C131.183380,232.249741 131.269928,227.637665 126.784294,223.280624 
	C124.613403,217.965775 120.140823,216.510864 114.231552,216.104446 
	C113.488297,216.133728 112.745049,216.163010 111.343903,216.009903 
	C110.897629,216.073242 110.451363,216.136581 109.530960,216.087341 
	C109.530960,216.087341 109.057770,215.970886 108.921387,215.457260 
	C108.596718,215.625153 108.272049,215.793045 108.005463,215.987015 
M215.747101,174.784760 
	C216.449997,171.999313 216.259537,169.057159 213.254013,168.288712 
	C211.479706,167.835068 209.193069,169.385193 206.842896,170.712891 
	C207.431137,172.751678 207.517929,176.038788 208.729645,176.525543 
	C210.389374,177.192261 212.903305,175.732529 215.747101,174.784760 
M180.676361,162.899277 
	C182.570969,159.712387 183.269470,156.432770 180.132935,153.724884 
	C177.665405,151.594604 172.323227,153.046539 169.999039,156.884293 
	C169.537567,160.215897 170.272415,163.456192 173.504517,164.582520 
	C175.298553,165.207733 177.797272,163.810837 180.676361,162.899277 
M94.206650,275.363770 
	C93.404755,278.965149 95.451309,281.256256 98.231888,282.613647 
	C100.910835,283.921417 103.961456,284.497192 106.690353,280.876953 
	C106.822556,278.911743 106.954758,276.946533 106.988213,274.207031 
	C105.247742,269.478302 101.987877,269.010376 97.144432,270.988953 
	C96.381340,272.332397 95.618248,273.675812 94.206650,275.363770 
M131.018463,171.898651 
	C131.016647,173.218338 130.901428,174.549393 131.032501,175.855743 
	C131.618286,181.693253 137.658768,186.316483 143.791824,185.025208 
	C146.136978,183.694366 148.482132,182.363525 151.015808,180.561005 
	C151.050888,180.395370 151.085953,180.229721 151.813751,179.699463 
	C154.649521,172.207001 152.561951,167.321045 146.003220,163.473251 
	C142.465424,161.397736 136.425674,163.634293 132.915314,168.602783 
	C132.335495,169.421921 131.755676,170.241043 131.018463,171.898651 
M76.417969,280.028015 
	C76.240517,280.342346 76.063065,280.656647 75.284958,281.217529 
	C74.590912,282.483948 73.896866,283.750366 73.037422,285.855133 
	C72.627396,290.716064 73.451340,295.111206 78.580513,297.076660 
	C82.617790,298.623749 86.727005,299.020660 90.639404,294.887787 
	C91.370789,293.252136 92.102173,291.616455 92.993530,289.170990 
	C94.295494,283.650787 89.318939,281.536469 86.405037,279.289612 
	C84.515060,277.832336 80.153923,279.579865 76.960083,279.929199 
	C76.960083,279.929199 76.953468,279.858582 76.417969,280.028015 
M74.320000,250.808655 
	C77.114830,254.263290 80.401138,254.306747 84.648567,251.837463 
	C86.992729,249.977310 88.532051,246.861893 86.222054,245.149780 
	C83.350243,243.021240 80.840775,238.010010 76.160706,240.554291 
	C72.420013,242.587906 71.852852,246.299286 74.320000,250.808655 
M134.237457,196.340973 
	C130.238159,198.746246 128.308578,202.548706 129.150085,206.876236 
	C129.767792,210.052780 130.346832,214.135773 135.275238,215.604736 
	C138.919754,217.043777 142.532745,217.673096 146.694656,214.853653 
	C151.423431,212.084259 151.711411,207.414612 150.796280,203.015137 
	C150.020645,199.286377 147.978424,195.669189 142.630951,195.226898 
	C140.042557,195.501801 137.454163,195.776703 134.237457,196.340973 
M192.741257,200.608658 
	C192.435028,198.394409 192.128799,196.180176 191.954086,193.246750 
	C187.498047,181.538605 175.578781,175.943222 164.414612,182.178009 
	C162.606201,184.084045 160.797791,185.990082 158.277954,188.175583 
	C155.938248,192.648193 155.081528,196.989105 155.713181,202.389313 
	C157.103455,214.275467 175.052246,221.309601 183.526611,213.894836 
	C183.704178,213.621628 183.881744,213.348419 184.803238,213.035553 
	C186.914429,210.346436 189.025635,207.657318 191.671555,204.765381 
	C191.725372,204.218292 191.779205,203.671188 192.017365,202.423874 
	C192.038239,201.941879 192.059128,201.459869 192.741257,200.608658 
M309.906616,293.280396 
	C310.096924,285.349304 309.973297,285.261047 301.913635,285.944580 
	C300.099396,286.098480 298.177094,286.334686 296.462219,285.904480 
	C294.888519,285.509705 293.527557,284.266998 292.072845,283.397919 
	C293.445343,281.618744 294.475006,279.118805 296.284393,278.258087 
	C298.188721,277.352234 300.850342,277.854187 303.160309,278.023895 
	C307.869476,278.369843 308.140594,275.471100 308.013062,271.951630 
	C307.864410,267.848724 305.654938,268.067444 302.601562,268.792542 
	C300.549561,269.279846 298.224243,269.351166 296.180389,268.895172 
	C294.666321,268.557373 292.654053,267.338013 292.195740,266.040771 
	C291.284088,263.460358 292.782837,261.493164 295.592163,261.150726 
	C298.039093,260.852448 300.538513,260.724823 302.998657,260.846741 
	C308.987946,261.143463 309.098846,261.126526 309.009583,254.991562 
	C308.989044,253.578995 308.791473,252.169006 308.709686,251.174606 
	C299.080109,251.174606 289.954102,251.174606 280.289795,251.772949 
	C279.992249,265.303467 279.651031,278.833527 279.498840,292.365662 
	C279.489075,293.235016 280.947998,294.889679 281.710724,294.882050 
	C291.088013,294.788147 300.462830,294.452240 309.906616,293.280396 
M244.557846,294.760803 
	C251.326828,294.841553 258.096802,295.023102 264.864349,294.957062 
	C267.880737,294.927673 270.892273,294.399872 273.949249,293.207703 
	C273.963715,292.376617 274.001038,291.545166 273.988953,290.714478 
	C273.907867,285.141235 273.623230,285.005585 267.885284,285.790863 
	C265.432861,286.126526 262.902100,285.842621 260.421051,286.028442 
	C257.310486,286.261414 255.887527,285.218842 255.914749,281.839600 
	C255.940689,278.619812 257.418213,277.836853 260.221741,277.971436 
	C262.542450,278.082825 264.895386,278.145447 267.195618,277.887390 
	C269.525482,277.626038 272.187988,277.886780 271.939667,273.844055 
	C271.720551,270.276581 270.720032,268.592651 266.996338,268.986938 
	C265.352203,269.161072 263.674286,269.025421 262.011810,269.015594 
	C255.455185,268.976776 254.471039,267.328918 257.115723,260.913055 
	C261.607788,260.913055 266.090820,261.117767 270.546631,260.857361 
	C275.321808,260.578339 273.955566,256.660278 273.815704,253.987167 
	C273.752380,252.776505 272.052643,250.666946 271.062897,250.647919 
	C264.271301,250.517319 257.471832,250.879303 250.673401,250.990555 
	C244.665802,251.088882 242.780685,253.607773 242.968781,259.766418 
	C243.270035,269.631531 242.987366,279.513489 243.076111,289.387177 
	C243.090073,290.940918 243.759766,292.488739 244.557846,294.760803 
M316.429138,251.534195 
	C316.219147,254.875641 315.853149,258.216003 315.829498,261.558746 
	C315.767639,270.317139 316.252502,279.103943 315.653351,287.819855 
	C315.461090,290.617126 314.231476,292.966949 317.897522,294.979797 
	C318.896118,294.987854 319.894836,295.011414 320.893250,295.001465 
	C327.537750,294.935181 327.941071,294.532532 327.978851,287.875854 
	C327.994324,285.152496 327.981445,282.429016 327.981445,279.705597 
	C328.450775,279.618835 328.920105,279.532043 329.389435,279.445282 
	C330.936768,282.266144 332.617249,285.023163 334.005066,287.920441 
	C337.443787,295.099182 343.700317,297.258362 351.543518,293.544159 
	C348.519470,288.632080 345.512665,283.748016 342.403870,278.698303 
	C343.000916,278.207092 343.550415,277.530151 344.260925,277.205414 
	C351.035217,274.109070 351.325043,265.667023 349.577484,259.341980 
	C347.916107,253.328873 343.896667,251.052490 335.980194,251.021133 
	C329.655945,250.996078 323.331512,251.026794 316.429138,251.534195 
M203.094757,291.615448 
	C203.948730,297.002167 208.142670,294.691772 211.019180,294.819580 
	C214.187897,294.960358 215.117310,292.702271 215.003479,289.766968 
	C214.872925,286.399780 214.973236,283.023682 214.973236,279.651428 
	C218.786880,283.680084 221.226807,287.924713 223.942337,291.985077 
	C224.841537,293.329590 226.406387,295.053406 227.743195,295.122223 
	C231.386032,295.309784 235.069565,294.706482 239.680420,294.341919 
	C236.031296,288.433624 232.948898,283.442902 229.857727,278.437988 
	C235.736679,275.500336 239.129944,268.566589 237.888062,261.339417 
	C236.987823,256.100586 231.433472,251.296234 225.327713,251.088165 
	C218.216980,250.845840 211.091034,251.050705 203.200378,251.452072 
	C203.174377,264.567749 203.148361,277.683411 203.094757,291.615448 
M191.649704,294.984650 
	C194.395416,294.806458 197.141129,294.628265 200.288116,294.424042 
	C198.472610,288.747894 197.018768,283.573120 195.157913,278.549103 
	C192.988739,272.692627 190.121796,267.080688 188.169952,261.160767 
	C184.903854,251.254639 185.108200,251.187286 174.766876,250.980087 
	C174.600525,250.976746 174.426300,251.006119 174.268921,250.967133 
	C171.519257,250.285919 170.626328,251.573059 169.929810,254.162567 
	C168.478134,259.559631 166.627136,264.861145 164.712433,270.118958 
	C162.076447,277.357422 159.198608,284.507538 156.515198,291.729279 
	C156.204941,292.564209 156.473145,293.614136 156.473145,294.966064 
	C159.011246,294.966064 161.151062,295.024811 163.286301,294.951172 
	C165.958237,294.859070 168.874268,294.818665 169.296616,291.280884 
	C169.776352,287.262268 172.269547,286.676666 175.599533,286.960632 
	C177.251450,287.101471 178.944244,287.145416 180.585358,286.951813 
	C184.103897,286.536652 186.076401,287.731476 187.008698,291.381531 
	C187.372833,292.807129 189.484863,293.786255 191.649704,294.984650 
M339.640564,316.043213 
	C341.178375,317.121246 342.716156,318.199249 344.978119,319.784943 
	C344.978119,315.891266 345.232361,313.063660 344.848541,310.325500 
	C344.702271,309.282104 343.194275,307.812012 342.128296,307.639435 
	C339.658081,307.239502 337.078949,307.512238 333.626801,307.512238 
	C335.996307,311.222412 330.591614,315.344330 334.727692,318.953247 
	C336.465271,317.607330 337.729706,316.627899 339.640564,316.043213 
M431.950134,311.812500 
	C430.153961,310.231415 428.542755,307.638367 426.525024,307.269562 
	C421.577972,306.365417 421.401215,311.043640 419.525909,315.334198 
	C422.371124,316.399658 425.162933,318.243958 427.968536,318.265137 
	C430.631378,318.285217 432.555786,315.884918 431.950134,311.812500 
M281.690460,308.060547 
	C278.882996,307.622040 276.075562,307.183533 273.229584,306.738983 
	C272.403564,316.406525 272.534088,316.039886 278.294006,318.090302 
	C281.833771,319.350433 281.884064,317.671295 281.982727,315.327423 
	C282.073029,313.181396 282.035248,311.029968 281.690460,308.060547 
M357.666504,318.875183 
	C363.750641,317.512421 363.761230,317.487213 362.583557,307.460175 
	C359.900726,307.460175 357.244171,307.460175 354.025604,307.460175 
	C355.277588,311.070740 351.022919,315.848969 357.666504,318.875183 
M448.389069,308.196930 
	C446.077728,307.805969 443.766418,307.415009 441.023834,306.951080 
	C441.023834,309.891754 440.776947,312.216370 441.122314,314.449371 
	C441.310272,315.664551 442.311249,317.484772 443.275757,317.729187 
	C449.073486,319.198700 449.108856,319.072083 448.993988,312.388702 
	C448.974152,311.234711 448.912903,310.081482 448.389069,308.196930 
M118.033409,193.110916 
	C117.813019,189.267792 115.007210,188.131714 112.264740,189.232727 
	C110.697319,189.861984 109.359726,192.886627 109.318222,194.862137 
	C109.289871,196.211395 111.634712,198.704880 112.995758,198.759445 
	C115.764885,198.870438 118.682854,197.776779 118.033409,193.110916 
M306.138733,318.546143 
	C311.471985,318.449921 312.224487,317.395203 310.406586,312.761230 
	C310.132507,312.062653 310.418488,311.160126 310.217194,310.413483 
	C309.908661,309.268951 309.292419,307.194733 308.997406,307.227539 
	C307.374786,307.408234 304.449524,308.108368 304.448975,308.632874 
	C304.445648,311.766144 305.121246,314.900146 306.138733,318.546143 
M392.463226,317.143646 
	C393.643921,317.856476 394.824615,318.569305 396.005310,319.282166 
	C396.414246,319.002502 396.823151,318.722839 397.232086,318.443176 
	C396.672180,316.965240 396.224915,315.431458 395.526794,314.021973 
	C394.384521,311.715729 393.079010,309.490356 391.842346,307.230865 
	C390.595978,309.587677 389.183624,311.876404 388.176239,314.331299 
	C387.703064,315.484375 388.009552,316.957428 387.962708,318.285431 
	C389.215729,317.890778 390.468750,317.496124 392.463226,317.143646 
M244.633270,317.949036 
	C245.173035,316.812317 246.349854,315.529694 246.129395,314.567108 
	C245.541809,312.001648 244.352966,309.573883 243.403152,307.091400 
	C242.855957,306.990051 242.308762,306.888702 241.761581,306.787384 
	C240.308319,310.606384 238.855057,314.425415 237.401794,318.244415 
	C237.888397,318.491882 238.374985,318.739380 238.861588,318.986847 
	C240.567810,318.514252 242.274048,318.041687 244.633270,317.949036 
M406.110657,314.346985 
	C406.553192,315.549561 406.713135,317.045044 407.543243,317.845886 
	C408.048645,318.333466 410.415710,317.997559 410.531860,317.608795 
	C411.535370,314.250427 412.217102,310.795898 412.987305,307.402710 
	C409.661377,307.402710 406.839508,307.402710 404.388275,307.402710 
	C405.016235,309.629517 405.569427,311.591217 406.110657,314.346985 
M259.097443,318.462982 
	C260.047424,317.764496 261.591827,317.230103 261.838257,316.337372 
	C262.644165,313.417786 262.977417,310.367737 263.498291,307.333679 
	C261.219666,307.333679 258.688446,307.333679 256.172119,307.333679 
	C256.991028,311.071930 257.745117,314.514252 259.097443,318.462982 
M227.114853,307.995667 
	C225.498138,307.995667 223.881439,307.995667 222.278046,307.995667 
	C222.027237,310.290771 221.561157,312.099731 221.741669,313.841705 
	C221.846924,314.857422 223.370041,316.676544 223.601105,316.579315 
	C225.547302,315.760529 227.972015,314.975098 228.968262,313.378265 
	C229.669174,312.254791 228.365433,309.880615 227.114853,307.995667 
M372.086456,308.072784 
	C372.056854,310.214294 371.815186,312.381470 372.070038,314.488586 
	C372.248688,315.965515 372.765778,318.202209 373.738281,318.593964 
	C375.182037,319.175507 377.162384,318.425049 378.402191,318.295197 
	C377.424530,314.984528 376.956787,312.398102 375.864594,310.109711 
	C375.287079,308.899658 373.622681,308.208313 372.086456,308.072784 
M320.832703,310.609344 
	C320.546112,312.353851 319.992950,314.110840 320.073761,315.838135 
	C320.121552,316.859528 321.171722,317.834015 321.771149,318.829559 
	C322.494812,317.905396 323.746765,317.032593 323.842468,316.047424 
	C324.122589,313.163391 323.942139,310.234650 323.942139,307.323425 
	C323.311920,307.161530 322.681671,306.999603 322.051453,306.837708 
	C321.689148,307.829865 321.326843,308.821991 320.832703,310.609344 
z"/>
<path fill="#0D1835" opacity="1.000000" stroke="none" 
	d="
M203.971680,251.061523 
	C211.091034,251.050705 218.216980,250.845840 225.327713,251.088165 
	C231.433472,251.296234 236.987823,256.100586 237.888062,261.339417 
	C239.129944,268.566589 235.736679,275.500336 229.857727,278.437988 
	C232.948898,283.442902 236.031296,288.433624 239.680420,294.341919 
	C235.069565,294.706482 231.386032,295.309784 227.743195,295.122223 
	C226.406387,295.053406 224.841537,293.329590 223.942337,291.985077 
	C221.226807,287.924713 218.786880,283.680084 214.973236,279.651428 
	C214.973236,283.023682 214.872925,286.399780 215.003479,289.766968 
	C215.117310,292.702271 214.187897,294.960358 211.019180,294.819580 
	C208.142670,294.691772 203.948730,297.002167 203.406769,290.931152 
	C203.803070,277.185089 203.887375,264.123291 203.971680,251.061523 
M225.823288,263.218628 
	C223.363922,262.470795 220.920639,261.269989 218.437836,261.181885 
	C217.331772,261.142639 215.365402,263.227783 215.168533,264.553528 
	C214.819855,266.901428 213.988052,270.090332 217.856812,270.919922 
	C222.530029,271.921997 225.872299,269.053009 225.823288,263.218628 
z"/>
<path fill="#0B1634" opacity="1.000000" stroke="none" 
	d="
M317.007141,251.032761 
	C323.331512,251.026794 329.655945,250.996078 335.980194,251.021133 
	C343.896667,251.052490 347.916107,253.328873 349.577484,259.341980 
	C351.325043,265.667023 351.035217,274.109070 344.260925,277.205414 
	C343.550415,277.530151 343.000916,278.207092 342.403870,278.698303 
	C345.512665,283.748016 348.519470,288.632080 351.543518,293.544159 
	C343.700317,297.258362 337.443787,295.099182 334.005066,287.920441 
	C332.617249,285.023163 330.936768,282.266144 329.389435,279.445282 
	C328.920105,279.532043 328.450775,279.618835 327.981445,279.705597 
	C327.981445,282.429016 327.994324,285.152496 327.978851,287.875854 
	C327.941071,294.532532 327.537750,294.935181 320.893250,295.001465 
	C319.894836,295.011414 318.896118,294.987854 317.450104,294.509003 
	C317.004150,279.703064 317.005646,265.367920 317.007141,251.032761 
M333.328369,271.004974 
	C336.959961,271.262512 339.549622,269.300903 339.409698,266.005615 
	C339.290802,263.206055 337.502045,260.653137 333.491516,260.847260 
	C330.038940,261.014404 328.171173,262.001434 327.993958,265.623871 
	C327.833588,268.902130 328.459229,271.326630 333.328369,271.004974 
z"/>
<path fill="#0D1835" opacity="1.000000" stroke="none" 
	d="
M191.225250,294.976685 
	C189.484863,293.786255 187.372833,292.807129 187.008698,291.381531 
	C186.076401,287.731476 184.103897,286.536652 180.585358,286.951813 
	C178.944244,287.145416 177.251450,287.101471 175.599533,286.960632 
	C172.269547,286.676666 169.776352,287.262268 169.296616,291.280884 
	C168.874268,294.818665 165.958237,294.859070 163.286301,294.951172 
	C161.151062,295.024811 159.011246,294.966064 156.473145,294.966064 
	C156.473145,293.614136 156.204941,292.564209 156.515198,291.729279 
	C159.198608,284.507538 162.076447,277.357422 164.712433,270.118958 
	C166.627136,264.861145 168.478134,259.559631 169.929810,254.162567 
	C170.626328,251.573059 171.519257,250.285919 174.268921,250.967133 
	C174.426300,251.006119 174.600525,250.976746 174.766876,250.980087 
	C185.108200,251.187286 184.903854,251.254639 188.169952,261.160767 
	C190.121796,267.080688 192.988739,272.692627 195.157913,278.549103 
	C197.018768,283.573120 198.472610,288.747894 200.288116,294.424042 
	C197.141129,294.628265 194.395416,294.806458 191.225250,294.976685 
M179.093353,269.585236 
	C178.803482,268.698303 178.513626,267.811371 177.726562,265.403107 
	C176.125427,270.577789 174.968338,274.317352 173.426208,279.301361 
	C176.938828,278.661499 179.206329,278.248474 181.889938,277.759644 
	C180.950150,274.871765 180.193451,272.546539 179.093353,269.585236 
z"/>
<path fill="#0B1634" opacity="1.000000" stroke="none" 
	d="
M244.126266,294.039307 
	C243.759766,292.488739 243.090073,290.940918 243.076111,289.387177 
	C242.987366,279.513489 243.270035,269.631531 242.968781,259.766418 
	C242.780685,253.607773 244.665802,251.088882 250.673401,250.990555 
	C257.471832,250.879303 264.271301,250.517319 271.062897,250.647919 
	C272.052643,250.666946 273.752380,252.776505 273.815704,253.987167 
	C273.955566,256.660278 275.321808,260.578339 270.546631,260.857361 
	C266.090820,261.117767 261.607788,260.913055 257.115723,260.913055 
	C254.471039,267.328918 255.455185,268.976776 262.011810,269.015594 
	C263.674286,269.025421 265.352203,269.161072 266.996338,268.986938 
	C270.720032,268.592651 271.720551,270.276581 271.939667,273.844055 
	C272.187988,277.886780 269.525482,277.626038 267.195618,277.887390 
	C264.895386,278.145447 262.542450,278.082825 260.221741,277.971436 
	C257.418213,277.836853 255.940689,278.619812 255.914749,281.839600 
	C255.887527,285.218842 257.310486,286.261414 260.421051,286.028442 
	C262.902100,285.842621 265.432861,286.126526 267.885284,285.790863 
	C273.623230,285.005585 273.907867,285.141235 273.988953,290.714478 
	C274.001038,291.545166 273.963715,292.376617 273.467041,293.618713 
	C263.365295,294.032898 253.745773,294.036102 244.126266,294.039307 
z"/>
<path fill="#0B1634" opacity="1.000000" stroke="none" 
	d="
M280.828125,251.174606 
	C289.954102,251.174606 299.080109,251.174606 308.709686,251.174606 
	C308.791473,252.169006 308.989044,253.578995 309.009583,254.991562 
	C309.098846,261.126526 308.987946,261.143463 302.998657,260.846741 
	C300.538513,260.724823 298.039093,260.852448 295.592163,261.150726 
	C292.782837,261.493164 291.284088,263.460358 292.195740,266.040771 
	C292.654053,267.338013 294.666321,268.557373 296.180389,268.895172 
	C298.224243,269.351166 300.549561,269.279846 302.601562,268.792542 
	C305.654938,268.067444 307.864410,267.848724 308.013062,271.951630 
	C308.140594,275.471100 307.869476,278.369843 303.160309,278.023895 
	C300.850342,277.854187 298.188721,277.352234 296.284393,278.258087 
	C294.475006,279.118805 293.445343,281.618744 292.072845,283.397919 
	C293.527557,284.266998 294.888519,285.509705 296.462219,285.904480 
	C298.177094,286.334686 300.099396,286.098480 301.913635,285.944580 
	C309.973297,285.261047 310.096924,285.349304 309.416321,293.697418 
	C301.143524,294.084167 293.359131,293.941742 285.579437,294.075287 
	C282.152924,294.134094 280.634521,293.467316 280.733063,289.423340 
	C281.043579,276.680573 280.835480,263.925140 280.828125,251.174606 
z"/>
<path fill="#7040FA" opacity="1.000000" stroke="none" 
	d="
M203.079651,346.798004 
	C193.972534,348.184448 184.865417,349.570892 175.210846,350.551392 
	C170.082306,349.127045 165.501236,348.108582 161.075058,346.755676 
	C163.483612,342.605804 165.737274,338.790436 168.459595,334.981537 
	C177.266815,334.306641 185.876205,334.679474 193.862885,332.628021 
	C200.931274,330.812439 207.306625,326.298676 214.245087,322.990662 
	C214.673920,323.009216 214.845581,323.013245 215.017242,323.017242 
	C217.627487,325.805145 220.237732,328.593079 222.836258,331.994934 
	C219.473251,335.395355 216.251862,338.360962 212.731277,340.914001 
	C209.690750,343.118958 206.309998,344.854797 203.079651,346.798004 
z"/>
<path fill="#8852FB" opacity="1.000000" stroke="none" 
	d="
M213.987930,322.976105 
	C207.306625,326.298676 200.931274,330.812439 193.862885,332.628021 
	C185.876205,334.679474 177.266815,334.306641 168.178101,334.743134 
	C164.615387,333.651642 161.802826,332.805054 159.094208,331.619568 
	C160.167404,330.833527 161.180191,330.461121 162.098419,329.926300 
	C166.122726,327.582336 170.396042,325.440399 171.499725,320.031189 
	C182.162582,320.428345 192.214783,320.137329 201.414917,313.921387 
	C202.888962,313.978973 203.961792,314.019623 205.034637,314.060272 
	C205.392334,314.042389 205.663773,314.186737 206.055603,314.930603 
	C206.518890,315.580353 206.775513,315.792725 207.032135,316.005127 
	C207.032135,316.005127 207.475250,316.063019 207.754166,316.485809 
	C209.382584,317.931000 210.732071,318.953400 212.081573,319.975800 
	C212.081573,319.975800 212.005035,319.990509 212.135254,320.175171 
	C212.535156,320.576996 212.804855,320.794159 213.074554,321.011353 
	C213.074554,321.011353 212.989868,321.008942 213.117737,321.194153 
	C213.517471,321.590240 213.789322,321.801178 214.061188,322.012085 
	C214.061188,322.012085 214.000305,322.011841 214.001709,322.238403 
	C213.998047,322.635376 213.992981,322.805725 213.987930,322.976105 
z"/>
<path fill="#AE74F8" opacity="1.000000" stroke="none" 
	d="
M108.958511,284.974121 
	C109.965836,282.090515 111.738991,279.227448 111.817024,276.318909 
	C111.967735,270.701355 104.287491,264.176514 97.791595,267.129333 
	C98.248405,261.888031 98.665146,257.106506 99.152786,251.511536 
	C102.493248,252.811890 105.385277,253.937683 108.650368,255.335953 
	C109.023430,255.608414 109.038208,256.008484 109.083267,256.366089 
	C110.432144,258.393921 112.157310,261.677460 112.969482,261.465332 
	C117.335464,260.325012 118.948875,263.313141 120.863602,265.846100 
	C123.352295,269.138428 125.617981,272.599365 128.051788,276.381165 
	C128.745102,280.518250 129.366302,284.261932 129.652588,288.084076 
	C127.904083,290.515137 126.726135,293.061920 124.999802,295.156769 
	C123.696228,296.738617 121.691399,297.742523 119.753189,298.998169 
	C119.507713,298.992676 119.016815,298.979248 119.001976,298.601135 
	C117.089584,293.046509 115.192032,287.869934 113.286980,282.672913 
	C111.723900,283.503937 110.341202,284.239014 108.958511,284.974121 
z"/>
<path fill="#7F4DF7" opacity="1.000000" stroke="none" 
	d="
M158.990265,331.958466 
	C161.802826,332.805054 164.615387,333.651642 167.709442,334.736633 
	C165.737274,338.790436 163.483612,342.605804 160.674774,346.723267 
	C157.391693,346.714172 154.663788,346.402954 151.935898,346.091766 
	C147.509506,344.108948 143.083130,342.126129 138.243942,339.670685 
	C135.549133,337.137573 133.267151,335.077057 131.085632,332.677155 
	C132.767807,331.117981 134.292542,329.813660 135.945953,328.700439 
	C137.907593,327.379639 139.979980,326.223328 142.320343,325.144714 
	C148.087631,327.515320 153.538940,329.736877 158.990265,331.958466 
z"/>
<path fill="#915FF1" opacity="1.000000" stroke="none" 
	d="
M152.071960,239.081848 
	C148.628418,243.629700 145.184875,248.177551 141.142487,252.860825 
	C140.362366,252.993958 140.181061,252.991669 140.062103,252.592468 
	C140.384003,251.243408 140.977097,250.236816 140.832504,249.350586 
	C140.546555,247.597763 139.852722,245.911469 139.327515,244.197662 
	C137.649612,245.272980 135.583496,246.033401 134.391510,247.502899 
	C132.882248,249.363510 132.083893,251.800766 130.835327,254.294891 
	C130.120667,256.057343 129.549637,257.514252 128.632050,258.925842 
	C126.200966,256.987854 124.116440,255.095154 122.031914,253.202454 
	C130.268051,247.647888 134.461349,240.005173 134.030167,229.125595 
	C134.030579,227.178253 134.030472,226.078979 134.369141,225.083557 
	C136.403214,229.611328 139.811951,231.540909 144.290527,230.870514 
	C146.618896,230.521957 148.771851,229.001465 150.991547,228.372986 
	C149.784348,232.349045 145.891098,236.247513 152.071960,239.081848 
M126.458176,252.494827 
	C126.458176,252.494827 126.520767,252.465759 126.458176,252.494827 
z"/>
<path fill="#C487FA" opacity="1.000000" stroke="none" 
	d="
M129.987488,288.005585 
	C129.366302,284.261932 128.745102,280.518250 128.057587,275.933472 
	C127.999718,272.402374 128.008179,269.712402 128.411270,267.013062 
	C131.195862,267.675781 133.585831,268.347900 135.978638,269.464661 
	C136.608841,272.927277 137.236191,275.945221 137.863541,278.963196 
	C140.574219,284.724884 143.284897,290.486603 146.030991,296.989685 
	C147.865646,301.936249 145.543243,303.837219 141.668350,305.017883 
	C140.944260,304.964172 140.530167,304.936218 140.035645,304.571228 
	C136.632629,298.824677 133.310059,293.415131 129.987488,288.005585 
z"/>
<path fill="#B891FA" opacity="1.000000" stroke="none" 
	d="
M126.089066,245.000336 
	C124.979141,245.996292 123.869209,246.992233 122.207306,248.132599 
	C121.438683,248.528458 121.222023,248.779922 121.005371,249.031403 
	C121.005371,249.031403 120.995064,248.998138 120.639320,248.991669 
	C111.589653,244.321533 102.895721,239.657852 94.201797,234.994171 
	C94.479652,232.930527 94.757507,230.866898 95.441620,228.469666 
	C103.928154,233.484406 103.928154,233.484406 106.076004,224.779373 
	C106.415077,224.327499 106.662865,224.129196 107.318802,224.008148 
	C108.507797,224.699005 109.433777,225.276840 110.141373,226.053619 
	C113.151344,229.357758 116.096611,232.720871 118.909721,236.373291 
	C118.960579,237.957474 118.714317,239.732986 119.461540,240.406921 
	C121.441299,242.192429 123.850655,243.501602 126.089066,245.000336 
z"/>
<path fill="#B891FA" opacity="1.000000" stroke="none" 
	d="
M184.059296,213.075211 
	C183.881744,213.348419 183.704178,213.621628 183.050049,213.717224 
	C177.128525,210.570587 171.736710,207.498550 166.226562,204.655823 
	C157.169174,199.983002 156.820679,199.411087 159.251160,190.271973 
	C162.220688,193.757950 165.227783,195.105209 169.247162,192.136581 
	C173.039413,194.514603 176.530731,196.730728 180.029755,199.185974 
	C180.037430,199.425125 180.030914,199.903625 179.831650,200.176453 
	C175.496231,207.449265 184.715134,205.330856 185.408646,209.235321 
	C185.013687,210.359283 184.536499,211.717239 184.059296,213.075211 
z"/>
<path fill="#7F4DF7" opacity="1.000000" stroke="none" 
	d="
M177.966507,221.267273 
	C180.692657,220.184204 183.418808,219.101151 186.805084,218.145203 
	C187.972275,219.177261 188.479324,220.082199 189.067612,221.342194 
	C193.136337,223.227020 197.123840,224.756805 200.981522,226.590973 
	C196.898071,228.234894 192.717758,231.121918 189.039322,230.583038 
	C181.974045,229.548004 175.093994,228.893906 167.791138,229.811829 
	C165.690811,227.736359 163.853668,225.868027 162.021820,223.670410 
	C162.031952,222.902054 162.036774,222.462982 162.400757,221.973953 
	C167.828766,221.705078 172.897644,221.486176 177.966507,221.267273 
z"/>
<path fill="#AE74F8" opacity="1.000000" stroke="none" 
	d="
M141.978363,305.043610 
	C145.543243,303.837219 147.865646,301.936249 146.077759,297.357697 
	C151.778442,300.871277 157.302521,305.041473 163.238647,308.505554 
	C165.605820,309.886963 168.883392,309.708374 171.669495,310.847473 
	C170.271530,312.661133 168.913406,313.829620 167.642059,315.085938 
	C166.700363,316.016541 165.871536,317.061310 164.596069,318.038574 
	C155.423798,316.039490 147.625916,312.382446 141.978363,305.043610 
z"/>
<path fill="#A469F9" opacity="1.000000" stroke="none" 
	d="
M164.992432,318.055237 
	C165.871536,317.061310 166.700363,316.016541 167.642059,315.085938 
	C168.913406,313.829620 170.271530,312.661133 171.851746,311.217010 
	C172.111053,310.979065 172.577301,311.051880 173.148544,311.347992 
	C179.453705,311.274628 185.225327,311.190857 190.908951,310.440460 
	C195.057373,309.892792 198.462021,310.347900 201.013733,313.904480 
	C192.214783,320.137329 182.162582,320.428345 171.092285,320.019806 
	C168.477005,319.357208 166.734711,318.706207 164.992432,318.055237 
z"/>
<path fill="#9C67F6" opacity="1.000000" stroke="none" 
	d="
M188.986389,220.987152 
	C188.479324,220.082199 187.972275,219.177261 187.179626,218.116913 
	C191.334183,214.103287 193.801071,209.000473 196.380371,203.224274 
	C197.806747,201.879303 198.760590,200.980576 199.463943,200.317856 
	C201.075195,202.688522 202.080048,205.876663 203.737854,206.263000 
	C207.616302,207.166824 211.829834,206.513702 215.862701,206.928467 
	C217.648544,207.112152 219.325378,208.355728 221.051697,209.118164 
	C218.913742,211.657974 216.775803,214.197800 213.972321,216.817139 
	C210.091843,215.214417 206.723984,213.765778 203.702591,211.787903 
	C200.303040,209.562469 198.174606,210.479858 195.918839,213.471588 
	C193.877014,216.179581 191.317581,218.497330 188.986389,220.987152 
z"/>
<path fill="#9C67F6" opacity="1.000000" stroke="none" 
	d="
M162.041595,222.023911 
	C162.036774,222.462982 162.031952,222.902054 161.642273,223.728668 
	C157.839630,225.414276 154.421829,226.712326 151.004028,228.010361 
	C148.771851,229.001465 146.618896,230.521957 144.290527,230.870514 
	C139.811951,231.540909 136.403214,229.611328 134.258728,224.821335 
	C134.876038,223.031403 135.942535,221.607574 137.009048,220.183731 
	C137.178253,220.139160 137.347473,220.094604 137.886414,220.447128 
	C141.727203,222.985916 144.477142,221.733109 146.913651,219.004974 
	C146.913651,219.004974 146.924683,218.921402 147.362381,218.944183 
	C149.347244,218.106308 150.956940,217.339340 152.424438,216.359406 
	C153.972168,215.325897 155.384201,214.089142 156.855530,212.941208 
	C156.898010,213.114197 156.940506,213.287201 157.145050,213.918457 
	C157.489731,214.623993 157.724930,214.801849 158.012680,214.910233 
	C158.012680,214.910233 158.084091,214.919327 158.061462,215.343964 
	C159.373093,217.853714 160.707336,219.938812 162.041595,222.023911 
z"/>
<path fill="#C0A1F5" opacity="1.000000" stroke="none" 
	d="
M158.981583,190.066666 
	C156.820679,199.411087 157.169174,199.983002 166.226562,204.655823 
	C171.736710,207.498550 177.128525,210.570587 182.813232,213.798630 
	C175.052246,221.309601 157.103455,214.275467 155.713181,202.389313 
	C155.081528,196.989105 155.938248,192.648193 158.637268,188.397354 
	C158.991577,189.101639 158.986588,189.584152 158.981583,190.066666 
z"/>
<path fill="#AE74F8" opacity="1.000000" stroke="none" 
	d="
M189.067627,221.342194 
	C191.317581,218.497330 193.877014,216.179581 195.918839,213.471588 
	C198.174606,210.479858 200.303040,209.562469 203.702591,211.787903 
	C206.723984,213.765778 210.091843,215.214417 213.657562,216.946838 
	C210.880035,220.280441 207.751709,223.563828 204.110565,226.742065 
	C202.768951,226.520142 201.940140,226.403366 201.111343,226.286606 
	C197.123840,224.756805 193.136337,223.227020 189.067627,221.342194 
z"/>
<path fill="#A469F9" opacity="1.000000" stroke="none" 
	d="
M108.978027,284.984222 
	C110.341202,284.239014 111.723900,283.503937 113.286980,282.672913 
	C115.192032,287.869934 117.089584,293.046509 118.594086,298.608063 
	C115.163223,298.645050 113.387627,299.790619 112.421005,302.886108 
	C111.834541,304.764221 110.180557,306.308990 108.698204,308.006226 
	C107.979698,308.015015 107.569130,308.021088 107.158569,308.027161 
	C106.823975,307.563416 106.489380,307.099670 106.070312,305.945923 
	C105.494072,302.287994 103.603172,298.406525 104.814819,296.550751 
	C107.032509,293.154083 106.558311,290.249847 105.974419,286.948425 
	C105.974419,286.948425 105.999634,286.998505 106.323418,286.977173 
	C107.423637,286.289276 108.200066,285.622742 108.976494,284.956177 
	C108.976486,284.956177 108.997543,284.994324 108.978027,284.984222 
z"/>
<path fill="#A469F9" opacity="1.000000" stroke="none" 
	d="
M221.362259,208.982895 
	C219.325378,208.355728 217.648544,207.112152 215.862701,206.928467 
	C211.829834,206.513702 207.616302,207.166824 203.737854,206.263000 
	C202.080048,205.876663 201.075195,202.688522 199.463943,200.317856 
	C198.760590,200.980576 197.806747,201.879303 196.539886,202.885437 
	C196.031052,199.963943 195.835205,196.935059 195.620453,193.613571 
	C196.491241,193.444901 197.591232,192.846954 198.294281,193.154984 
	C205.574081,196.344604 212.893250,199.482681 219.926163,203.161469 
	C221.161743,203.807785 221.123032,206.890228 221.362259,208.982895 
z"/>
<path fill="#A469F9" opacity="1.000000" stroke="none" 
	d="
M128.016632,267.022430 
	C128.008179,269.712402 127.999718,272.402374 127.985458,275.540039 
	C125.617981,272.599365 123.352295,269.138428 120.863602,265.846100 
	C118.948875,263.313141 117.335464,260.325012 112.969482,261.465332 
	C112.157310,261.677460 110.432144,258.393921 109.525795,256.358582 
	C113.231697,255.333023 116.540146,254.672607 119.848602,254.012192 
	C120.362617,253.685760 120.876640,253.359314 121.711288,253.117676 
	C124.116440,255.095154 126.200966,256.987854 128.635895,259.335571 
	C128.663071,262.201202 128.339859,264.611816 128.016632,267.022430 
z"/>
<path fill="#C0A1F5" opacity="1.000000" stroke="none" 
	d="
M94.130081,235.374039 
	C102.895721,239.657852 111.589653,244.321533 120.655487,248.998047 
	C113.237045,253.992661 101.586647,251.047989 96.984261,242.798218 
	C95.753731,240.592499 95.020103,238.109573 94.130081,235.374039 
z"/>
<path fill="#8852FB" opacity="1.000000" stroke="none" 
	d="
M150.991562,228.372986 
	C154.421829,226.712326 157.839630,225.414276 161.636978,224.057968 
	C163.853668,225.868027 165.690811,227.736359 167.769379,230.113052 
	C167.998077,231.024292 167.985336,231.427170 167.972595,231.830048 
	C163.545090,233.791443 159.117569,235.752838 154.064804,237.886292 
	C152.967117,238.398178 152.494690,238.738007 152.022263,239.077835 
	C152.022263,239.077835 152.050903,239.028854 152.061432,239.055344 
	C145.891098,236.247513 149.784348,232.349045 150.991562,228.372986 
z"/>
<path fill="#C8B1F5" opacity="1.000000" stroke="none" 
	d="
M133.154404,168.014069 
	C136.425674,163.634293 142.465424,161.397736 146.003220,163.473251 
	C152.561951,167.321045 154.649521,172.207001 151.185501,179.865753 
	C150.368973,180.027649 150.180710,180.023224 149.753891,179.997772 
	C149.515350,179.976746 149.037231,179.948578 148.978241,179.604675 
	C144.881577,173.805588 140.730865,168.508835 133.154404,168.014069 
z"/>
<path fill="#915FF1" opacity="1.000000" stroke="none" 
	d="
M165.127274,182.221756 
	C175.578781,175.943222 187.498047,181.538605 191.501678,193.617004 
	C188.331848,192.676773 185.614426,191.366302 182.621918,189.851135 
	C179.566757,188.358948 176.786682,187.071442 173.937454,185.461044 
	C172.115921,181.436371 169.775955,181.345520 166.699249,183.966782 
	C165.983887,183.350769 165.555588,182.786255 165.127274,182.221756 
z"/>
<path fill="#C0A1F5" opacity="1.000000" stroke="none" 
	d="
M143.008728,195.944519 
	C147.978424,195.669189 150.020645,199.286377 150.796280,203.015137 
	C151.711411,207.414612 151.423431,212.084259 146.340729,214.644943 
	C143.582840,210.222610 141.178879,206.008987 138.760559,201.607224 
	C138.746185,201.419083 138.735367,201.041855 139.007935,200.935867 
	C139.775177,200.544937 140.269852,200.260010 140.864014,200.316818 
	C142.280594,202.316925 143.597672,203.975281 145.526855,206.404358 
	C146.534866,201.093781 144.714691,199.220718 140.867767,198.568054 
	C141.578964,197.498047 142.293854,196.721283 143.008728,195.944519 
z"/>
<path fill="#725BCB" opacity="1.000000" stroke="none" 
	d="
M339.317352,315.845825 
	C337.729706,316.627899 336.465271,317.607330 334.727692,318.953247 
	C330.591614,315.344330 335.996307,311.222412 333.626801,307.512238 
	C337.078949,307.512238 339.658081,307.239502 342.128296,307.639435 
	C343.194275,307.812012 344.702271,309.282104 344.848541,310.325500 
	C345.232361,313.063660 344.978119,315.891266 344.978119,319.784943 
	C342.716156,318.199249 341.178375,317.121246 339.317352,315.845825 
z"/>
<path fill="#725BCB" opacity="1.000000" stroke="none" 
	d="
M431.956726,312.214722 
	C432.555786,315.884918 430.631378,318.285217 427.968536,318.265137 
	C425.162933,318.243958 422.371124,316.399658 419.525909,315.334198 
	C421.401215,311.043640 421.577972,306.365417 426.525024,307.269562 
	C428.542755,307.638367 430.153961,310.231415 431.956726,312.214722 
z"/>
<path fill="#A67FF2" opacity="1.000000" stroke="none" 
	d="
M184.431274,213.055389 
	C184.536499,211.717239 185.013687,210.359283 185.408646,209.235321 
	C184.715134,205.330856 175.496231,207.449265 180.112366,200.146072 
	C181.070892,199.561783 181.549454,199.280701 182.424561,199.000824 
	C185.907410,199.660629 188.993698,200.319244 192.080017,200.977875 
	C192.059128,201.459869 192.038239,201.941879 191.669922,202.804565 
	C191.260620,203.779572 191.198730,204.373886 191.136841,204.968216 
	C189.025635,207.657318 186.914429,210.346436 184.431274,213.055389 
z"/>
<path fill="#725BCB" opacity="1.000000" stroke="none" 
	d="
M281.872192,308.470734 
	C282.035248,311.029968 282.073029,313.181396 281.982727,315.327423 
	C281.884064,317.671295 281.833771,319.350433 278.294006,318.090302 
	C272.534088,316.039886 272.403564,316.406525 273.229584,306.738983 
	C276.075562,307.183533 278.882996,307.622040 281.872192,308.470734 
z"/>
<path fill="#725BCB" opacity="1.000000" stroke="none" 
	d="
M357.318207,318.657745 
	C351.022919,315.848969 355.277588,311.070740 354.025604,307.460175 
	C357.244171,307.460175 359.900726,307.460175 362.583557,307.460175 
	C363.761230,317.487213 363.750641,317.512421 357.318207,318.657745 
z"/>
<path fill="#B891FA" opacity="1.000000" stroke="none" 
	d="
M149.037231,179.948578 
	C149.037231,179.948578 149.515350,179.976746 149.853607,180.196350 
	C150.358429,180.668152 150.570236,180.873718 150.827286,181.032684 
	C148.482132,182.363525 146.136978,183.694366 143.326416,184.703156 
	C140.827362,182.693741 138.857788,180.920471 136.742310,179.342880 
	C134.571701,177.724228 131.595718,176.692139 133.376038,173.020584 
	C138.851028,175.340546 143.944138,177.644562 149.037231,179.948578 
z"/>
<path fill="#7F4DF7" opacity="1.000000" stroke="none" 
	d="
M134.875076,214.916885 
	C130.346832,214.135773 129.767792,210.052780 129.150085,206.876236 
	C128.308578,202.548706 130.238159,198.746246 134.734543,196.517212 
	C135.325821,198.115356 135.242630,199.576523 135.547150,200.951859 
	C136.499741,205.254333 131.816177,210.205078 136.850418,214.233078 
	C136.059799,214.620087 135.467438,214.768494 134.875076,214.916885 
z"/>
<path fill="#A469F9" opacity="1.000000" stroke="none" 
	d="
M130.978943,253.989334 
	C132.083893,251.800766 132.882248,249.363510 134.391510,247.502899 
	C135.583496,246.033401 137.649612,245.272980 139.327515,244.197662 
	C139.852722,245.911469 140.546555,247.597763 140.832504,249.350586 
	C140.977097,250.236816 140.384003,251.243408 140.059906,252.938660 
	C140.010803,254.142471 140.026230,254.603180 140.041656,255.063889 
	C140.041672,255.063889 140.009567,255.002182 139.724503,255.065857 
	C139.295563,256.100433 139.151688,257.071350 139.007797,258.042267 
	C139.007797,258.042267 138.969452,258.524750 138.581268,258.755920 
	C137.790634,258.990540 137.388168,258.993988 136.739349,258.780273 
	C134.654953,257.038513 132.816956,255.513931 130.978943,253.989334 
z"/>
<path fill="#915FF1" opacity="1.000000" stroke="none" 
	d="
M127.109329,223.947876 
	C131.269928,227.637665 131.183380,232.249741 129.550201,237.466965 
	C126.793434,236.878922 124.453484,235.931122 122.100815,234.744019 
	C122.088104,234.504730 122.048447,234.026840 122.215256,233.693420 
	C122.766365,230.687500 123.150681,228.014969 123.875473,225.158188 
	C125.180412,224.631897 126.144875,224.289886 127.109329,223.947876 
z"/>
<path fill="#A67FF2" opacity="1.000000" stroke="none" 
	d="
M164.770935,182.199890 
	C165.555588,182.786255 165.983887,183.350769 166.746231,184.291443 
	C168.059006,185.791595 169.037750,186.915558 169.866211,188.350204 
	C169.459366,189.765472 169.202805,190.870071 168.946243,191.974670 
	C165.227783,195.105209 162.220688,193.757950 159.251160,190.271973 
	C158.986588,189.584152 158.991577,189.101639 158.992981,188.257629 
	C160.797791,185.990082 162.606201,184.084045 164.770935,182.199890 
z"/>
<path fill="#725BCB" opacity="1.000000" stroke="none" 
	d="
M448.629913,308.562408 
	C448.912903,310.081482 448.974152,311.234711 448.993988,312.388702 
	C449.108856,319.072083 449.073486,319.198700 443.275757,317.729187 
	C442.311249,317.484772 441.310272,315.664551 441.122314,314.449371 
	C440.776947,312.216370 441.023834,309.891754 441.023834,306.951080 
	C443.766418,307.415009 446.077728,307.805969 448.629913,308.562408 
z"/>
<path fill="#C8B1F5" opacity="1.000000" stroke="none" 
	d="
M76.900024,279.891479 
	C80.153923,279.579865 84.515060,277.832336 86.405037,279.289612 
	C89.318939,281.536469 94.295494,283.650787 92.687943,289.299011 
	C91.617561,288.647858 90.825729,287.173706 90.092354,287.202240 
	C85.333626,287.387329 82.431450,284.825592 79.909142,281.247314 
	C79.363358,280.473053 77.926468,280.326935 76.900024,279.891479 
z"/>
<path fill="#915FF1" opacity="1.000000" stroke="none" 
	d="
M130.985153,333.016571 
	C133.267151,335.077057 135.549133,337.137573 137.916016,339.512482 
	C134.451645,337.829285 130.329315,336.432587 127.472954,333.708435 
	C121.610054,328.116852 116.425400,321.814148 110.998535,315.385376 
	C111.035538,314.966553 111.174622,314.838440 111.492477,314.946960 
	C114.874962,318.037842 117.939606,321.020142 121.166420,324.292023 
	C124.547447,327.393250 127.766304,330.204926 130.985153,333.016571 
z"/>
<path fill="#C8B1F5" opacity="1.000000" stroke="none" 
	d="
M74.017868,250.149200 
	C71.852852,246.299286 72.420013,242.587906 76.160706,240.554291 
	C80.840775,238.010010 83.350243,243.021240 86.222054,245.149780 
	C88.532051,246.861893 86.992729,249.977310 84.284683,251.652802 
	C82.367096,247.089874 78.985474,245.322678 74.017868,244.698364 
	C74.017868,246.684464 74.017868,248.416824 74.017868,250.149200 
z"/>
<path fill="#C0A1F5" opacity="1.000000" stroke="none" 
	d="
M76.930054,279.910339 
	C77.926468,280.326935 79.363358,280.473053 79.909142,281.247314 
	C82.431450,284.825592 85.333626,287.387329 90.092354,287.202240 
	C90.825729,287.173706 91.617561,288.647858 92.607956,289.703918 
	C92.102173,291.616455 91.370789,293.252136 90.198357,294.777191 
	C89.505478,294.423401 89.253639,294.180237 88.988899,293.570496 
	C87.988449,292.088318 87.121452,290.826263 85.985344,289.891174 
	C84.248749,288.461792 81.831978,287.609589 80.599388,285.875763 
	C78.774117,283.308258 77.118454,283.723511 74.716202,285.001495 
	C74.009956,285.000946 73.606400,285.008850 73.202827,285.016785 
	C73.896866,283.750366 74.590912,282.483948 75.811150,280.959564 
	C76.542717,280.420593 76.748093,280.139587 76.953461,279.858582 
	C76.953468,279.858582 76.960083,279.929199 76.930054,279.910339 
z"/>
<path fill="#C0A1F5" opacity="1.000000" stroke="none" 
	d="
M118.165817,193.474167 
	C118.682854,197.776779 115.764885,198.870438 112.995758,198.759445 
	C111.634712,198.704880 109.289871,196.211395 109.318222,194.862137 
	C109.359726,192.886627 110.697319,189.861984 112.264740,189.232727 
	C115.007210,188.131714 117.813019,189.267792 118.165817,193.474167 
z"/>
<path fill="#725BCB" opacity="1.000000" stroke="none" 
	d="
M168.399521,231.903748 
	C167.985336,231.427170 167.998077,231.024292 168.032562,230.320221 
	C175.093994,228.893906 181.974045,229.548004 189.039322,230.583038 
	C192.717758,231.121918 196.898071,228.234894 200.981522,226.590973 
	C201.940140,226.403366 202.768951,226.520142 203.802368,226.886856 
	C199.518692,232.376877 193.274490,234.241608 187.206299,232.652008 
	C180.914719,231.003876 174.999557,230.934402 168.399521,231.903748 
z"/>
<path fill="#B891FA" opacity="1.000000" stroke="none" 
	d="
M135.075165,215.260803 
	C135.467438,214.768494 136.059799,214.620087 137.104645,213.923965 
	C137.715500,211.257889 137.829086,209.134933 138.046066,207.022598 
	C138.225708,205.273682 138.527344,203.537308 138.774933,201.795364 
	C141.178879,206.008987 143.582840,210.222610 146.005585,214.811157 
	C142.532745,217.673096 138.919754,217.043777 135.075165,215.260803 
z"/>
<path fill="#AE74F8" opacity="1.000000" stroke="none" 
	d="
M105.535645,286.982849 
	C106.558311,290.249847 107.032509,293.154083 104.814819,296.550751 
	C103.603172,298.406525 105.494072,302.287994 105.980339,305.668396 
	C103.448395,300.086426 100.921944,294.092010 97.940201,287.017303 
	C101.033562,287.017303 103.065224,287.017303 105.535645,286.982849 
z"/>
<path fill="#C0A1F5" opacity="1.000000" stroke="none" 
	d="
M148.978241,179.604675 
	C143.944138,177.644562 138.851028,175.340546 133.321838,172.729340 
	C132.315781,171.968140 131.745819,171.514160 131.175873,171.060181 
	C131.755676,170.241043 132.335495,169.421921 133.034851,168.308426 
	C140.730865,168.508835 144.881577,173.805588 148.978241,179.604675 
z"/>
<path fill="#9C67F6" opacity="1.000000" stroke="none" 
	d="
M192.410629,200.793274 
	C188.993698,200.319244 185.907410,199.660629 182.492081,198.602966 
	C182.407715,195.487900 182.652359,192.771851 182.897003,190.055817 
	C185.614426,191.366302 188.331848,192.676773 191.435928,193.976593 
	C192.128799,196.180176 192.435028,198.394409 192.410629,200.793274 
z"/>
<path fill="#686B82" opacity="1.000000" stroke="none" 
	d="
M280.558960,251.473785 
	C280.835480,263.925140 281.043579,276.680573 280.733063,289.423340 
	C280.634521,293.467316 282.152924,294.134094 285.579437,294.075287 
	C293.359131,293.941742 301.143524,294.084167 309.382172,294.146667 
	C300.462830,294.452240 291.088013,294.788147 281.710724,294.882050 
	C280.947998,294.889679 279.489075,293.235016 279.498840,292.365662 
	C279.651031,278.833527 279.992249,265.303467 280.558960,251.473785 
z"/>
<path fill="#725BCB" opacity="1.000000" stroke="none" 
	d="
M305.853882,318.290039 
	C305.121246,314.900146 304.445648,311.766144 304.448975,308.632874 
	C304.449524,308.108368 307.374786,307.408234 308.997406,307.227539 
	C309.292419,307.194733 309.908661,309.268951 310.217194,310.413483 
	C310.418488,311.160126 310.132507,312.062653 310.406586,312.761230 
	C312.224487,317.395203 311.471985,318.449921 305.853882,318.290039 
z"/>
<path fill="#725BCB" opacity="1.000000" stroke="none" 
	d="
M392.092529,317.122559 
	C390.468750,317.496124 389.215729,317.890778 387.962708,318.285461 
	C388.009552,316.957428 387.703064,315.484375 388.176239,314.331299 
	C389.183624,311.876404 390.595978,309.587677 391.842346,307.230865 
	C393.079010,309.490356 394.384521,311.715729 395.526794,314.021973 
	C396.224915,315.431458 396.672180,316.965240 397.232086,318.443176 
	C396.823151,318.722839 396.414246,319.002502 396.005310,319.282166 
	C394.824615,318.569305 393.643921,317.856476 392.092529,317.122559 
z"/>
<path fill="#A67FF2" opacity="1.000000" stroke="none" 
	d="
M122.113525,234.983307 
	C124.453484,235.931122 126.793434,236.878922 129.477356,237.871918 
	C128.786896,240.185165 127.752434,242.453217 126.403519,244.860809 
	C123.850655,243.501602 121.441299,242.192429 119.461540,240.406921 
	C118.714317,239.732986 118.960579,237.957474 119.226898,236.317322 
	C120.504417,235.628098 121.308975,235.305710 122.113525,234.983307 
z"/>
<path fill="#725BCB" opacity="1.000000" stroke="none" 
	d="
M244.306763,317.759064 
	C242.274048,318.041687 240.567810,318.514252 238.861588,318.986847 
	C238.374985,318.739380 237.888397,318.491882 237.401794,318.244415 
	C238.855057,314.425415 240.308319,310.606384 241.761581,306.787384 
	C242.308762,306.888702 242.855957,306.990051 243.403152,307.091400 
	C244.352966,309.573883 245.541809,312.001648 246.129395,314.567108 
	C246.349854,315.529694 245.173035,316.812317 244.306763,317.759064 
z"/>
<path fill="#A67FF2" opacity="1.000000" stroke="none" 
	d="
M136.635742,220.111908 
	C135.942535,221.607574 134.876038,223.031403 133.919952,224.717468 
	C134.030472,226.078979 134.030579,227.178253 134.020157,228.690216 
	C130.356766,223.547836 126.703880,217.992783 122.889832,212.192642 
	C124.674301,210.355637 125.375351,210.671768 128.328491,213.719620 
	C130.661957,216.127945 133.595428,217.954926 136.635742,220.111908 
z"/>
<path fill="#C0A1F5" opacity="1.000000" stroke="none" 
	d="
M107.086960,274.981323 
	C106.954758,276.946533 106.822556,278.911743 106.099869,280.718811 
	C101.957970,278.713531 98.406555,276.866394 94.855148,275.019257 
	C95.618248,273.675812 96.381340,272.332397 97.824249,271.111511 
	C101.753632,271.593109 102.728531,277.162170 107.086960,274.981323 
z"/>
<path fill="#725BCB" opacity="1.000000" stroke="none" 
	d="
M406.116638,313.949951 
	C405.569427,311.591217 405.016235,309.629517 404.388275,307.402710 
	C406.839508,307.402710 409.661377,307.402710 412.987305,307.402710 
	C412.217102,310.795898 411.535370,314.250427 410.531860,317.608795 
	C410.415710,317.997559 408.048645,318.333466 407.543243,317.845886 
	C406.713135,317.045044 406.553192,315.549561 406.116638,313.949951 
z"/>
<path fill="#B891FA" opacity="1.000000" stroke="none" 
	d="
M74.168930,250.478928 
	C74.017868,248.416824 74.017868,246.684464 74.017868,244.698364 
	C78.985474,245.322678 82.367096,247.089874 83.958817,251.835510 
	C80.401138,254.306747 77.114830,254.263290 74.168930,250.478928 
z"/>
<path fill="#A67FF2" opacity="1.000000" stroke="none" 
	d="
M105.940086,224.977142 
	C103.928154,233.484406 103.928154,233.484406 95.509811,228.071960 
	C96.207466,226.071777 97.243195,224.135696 98.870468,222.284760 
	C101.621361,223.238983 103.780724,224.108063 105.940086,224.977142 
z"/>
<path fill="#9C67F6" opacity="1.000000" stroke="none" 
	d="
M138.760559,201.607224 
	C138.527344,203.537308 138.225708,205.273682 138.046066,207.022598 
	C137.829086,209.134933 137.715500,211.257889 137.302917,213.685349 
	C131.816177,210.205078 136.499741,205.254333 135.547150,200.951859 
	C135.242630,199.576523 135.325821,198.115356 135.048706,196.372528 
	C137.454163,195.776703 140.042557,195.501801 142.819839,195.585709 
	C142.293854,196.721283 141.578964,197.498047 140.853241,198.566711 
	C140.842392,198.858597 140.821548,198.884583 140.528870,198.907593 
	C139.735931,199.634354 139.235657,200.338104 138.735367,201.041855 
	C138.735367,201.041855 138.746185,201.419083 138.760559,201.607224 
z"/>
<path fill="#725BCB" opacity="1.000000" stroke="none" 
	d="
M203.445801,346.855042 
	C206.309998,344.854797 209.690750,343.118958 212.731277,340.914001 
	C216.251862,338.360962 219.473251,335.395355 222.990234,332.307678 
	C224.380676,332.700714 225.605423,333.394928 228.189789,334.859802 
	C219.337921,339.236115 211.574936,343.074097 203.445801,346.855042 
z"/>
<path fill="#725BCB" opacity="1.000000" stroke="none" 
	d="
M258.798340,318.209778 
	C257.745117,314.514252 256.991028,311.071930 256.172119,307.333679 
	C258.688446,307.333679 261.219666,307.333679 263.498291,307.333679 
	C262.977417,310.367737 262.644165,313.417786 261.838257,316.337372 
	C261.591827,317.230103 260.047424,317.764496 258.798340,318.209778 
z"/>
<path fill="#A67FF2" opacity="1.000000" stroke="none" 
	d="
M131.097168,171.479416 
	C131.745819,171.514160 132.315781,171.968140 132.939941,172.713379 
	C131.595718,176.692139 134.571701,177.724228 136.742310,179.342880 
	C138.857788,180.920471 140.827362,182.693741 142.933350,184.730743 
	C137.658768,186.316483 131.618286,181.693253 131.032501,175.855743 
	C130.901428,174.549393 131.016647,173.218338 131.097168,171.479416 
z"/>
<path fill="#725BCB" opacity="1.000000" stroke="none" 
	d="
M227.535828,308.030273 
	C228.365433,309.880615 229.669174,312.254791 228.968262,313.378265 
	C227.972015,314.975098 225.547302,315.760529 223.601105,316.579315 
	C223.370041,316.676544 221.846924,314.857422 221.741669,313.841705 
	C221.561157,312.099731 222.027237,310.290771 222.278046,307.995667 
	C223.881439,307.995667 225.498138,307.995667 227.535828,308.030273 
z"/>
<path fill="#C8B1F5" opacity="1.000000" stroke="none" 
	d="
M170.156082,156.084518 
	C172.323227,153.046539 177.665405,151.594604 180.132935,153.724884 
	C183.269470,156.432770 182.570969,159.712387 180.218719,162.845734 
	C179.496811,162.522598 179.232529,162.253006 178.923813,161.628204 
	C177.652359,158.087830 175.891556,155.626541 171.634827,156.136627 
	C170.944733,156.111099 170.550415,156.097809 170.156082,156.084518 
z"/>
<path fill="#A67FF2" opacity="1.000000" stroke="none" 
	d="
M201.414917,313.921387 
	C198.462021,310.347900 195.057373,309.892792 190.908951,310.440460 
	C185.225327,311.190857 179.453705,311.274628 173.368210,311.434143 
	C180.148880,310.505188 187.287903,309.223389 194.410492,309.308899 
	C197.878067,309.350555 201.314972,311.946014 204.900192,313.722839 
	C203.961792,314.019623 202.888962,313.978973 201.414917,313.921387 
z"/>
<path fill="#725BCB" opacity="1.000000" stroke="none" 
	d="
M372.267700,307.677795 
	C373.622681,308.208313 375.287079,308.899658 375.864594,310.109711 
	C376.956787,312.398102 377.424530,314.984528 378.402191,318.295197 
	C377.162384,318.425049 375.182037,319.175507 373.738281,318.593964 
	C372.765778,318.202209 372.248688,315.965515 372.070038,314.488586 
	C371.815186,312.381470 372.056854,310.214294 372.267700,307.677795 
z"/>
<path fill="#725BCB" opacity="1.000000" stroke="none" 
	d="
M126.946808,223.614258 
	C126.144875,224.289886 125.180412,224.631897 123.680397,224.886337 
	C120.110649,223.028748 117.076462,221.258759 114.109360,219.213684 
	C114.439667,218.036880 114.702888,217.135162 114.966110,216.233444 
	C120.140823,216.510864 124.613403,217.965775 126.946808,223.614258 
z"/>
<path fill="#A67FF2" opacity="1.000000" stroke="none" 
	d="
M73.120132,285.435944 
	C73.606400,285.008850 74.009956,285.000946 74.716782,285.348999 
	C75.344444,286.804260 75.668839,287.903564 75.867577,289.302551 
	C76.243645,294.955414 80.882576,297.170563 87.259666,294.862732 
	C88.010986,294.476013 88.506393,294.206512 89.001808,293.937042 
	C89.253639,294.180237 89.505478,294.423401 89.866180,294.908386 
	C86.727005,299.020660 82.617790,298.623749 78.580513,297.076660 
	C73.451340,295.111206 72.627396,290.716064 73.120132,285.435944 
z"/>
<path fill="#A67FF2" opacity="1.000000" stroke="none" 
	d="
M94.530899,275.191528 
	C98.406555,276.866394 101.957970,278.713531 105.742867,280.838562 
	C103.961456,284.497192 100.910835,283.921417 98.231888,282.613647 
	C95.451309,281.256256 93.404755,278.965149 94.530899,275.191528 
z"/>
<path fill="#0D1835" opacity="1.000000" stroke="none" 
	d="
M316.718140,251.283478 
	C317.005646,265.367920 317.004150,279.703064 317.002014,294.503601 
	C314.231476,292.966949 315.461090,290.617126 315.653351,287.819855 
	C316.252502,279.103943 315.767639,270.317139 315.829498,261.558746 
	C315.853149,258.216003 316.219147,254.875641 316.718140,251.283478 
z"/>
<path fill="#725BCB" opacity="1.000000" stroke="none" 
	d="
M152.098999,346.423767 
	C154.663788,346.402954 157.391693,346.714172 160.519867,347.057770 
	C165.501236,348.108582 170.082306,349.127045 174.783081,350.488342 
	C167.108261,350.848328 159.393173,350.424255 152.098999,346.423767 
z"/>
<path fill="#915FF1" opacity="1.000000" stroke="none" 
	d="
M114.598831,216.168945 
	C114.702888,217.135162 114.439667,218.036880 113.778366,219.328995 
	C112.929077,219.840134 112.477852,219.960876 111.706421,220.176086 
	C109.965912,220.876389 108.545616,221.482224 106.857079,222.067047 
	C105.386261,221.014603 104.183678,219.983185 102.981094,218.951767 
	C103.734390,218.306412 104.487686,217.661041 105.863388,216.947861 
	C106.980965,216.564438 107.476135,216.248840 107.971306,215.933243 
	C107.971306,215.933243 108.005463,215.987015 108.254028,215.990173 
	C108.687645,215.985855 108.872704,215.978378 109.057770,215.970886 
	C109.057770,215.970886 109.530960,216.087341 109.939323,216.303589 
	C110.899055,216.410660 111.450424,216.301483 112.001793,216.192291 
	C112.745049,216.163010 113.488297,216.133728 114.598831,216.168945 
z"/>
<path fill="#915FF1" opacity="1.000000" stroke="none" 
	d="
M162.400757,221.973953 
	C160.707336,219.938812 159.373093,217.853714 158.063873,215.379883 
	C163.754471,219.089874 169.726639,222.235336 177.521393,221.182465 
	C172.897644,221.486176 167.828766,221.705078 162.400757,221.973953 
z"/>
<path fill="#725BCB" opacity="1.000000" stroke="none" 
	d="
M320.898621,310.211731 
	C321.326843,308.821991 321.689148,307.829865 322.051453,306.837708 
	C322.681671,306.999603 323.311920,307.161530 323.942139,307.323425 
	C323.942139,310.234650 324.122589,313.163391 323.842468,316.047424 
	C323.746765,317.032593 322.494812,317.905396 321.771149,318.829559 
	C321.171722,317.834015 320.121552,316.859528 320.073761,315.838135 
	C319.992950,314.110840 320.546112,312.353851 320.898621,310.211731 
z"/>
<path fill="#A67FF2" opacity="1.000000" stroke="none" 
	d="
M136.985718,258.997437 
	C137.388168,258.993988 137.790634,258.990540 138.494934,258.981995 
	C138.533646,265.333740 138.270538,271.690552 137.935486,278.505310 
	C137.236191,275.945221 136.608841,272.927277 135.985718,269.026611 
	C136.321854,265.095123 136.653793,262.046295 136.985718,258.997437 
z"/>
<path fill="#686B82" opacity="1.000000" stroke="none" 
	d="
M203.586029,251.256805 
	C203.887375,264.123291 203.803070,277.185089 203.420563,290.522949 
	C203.148361,277.683411 203.174377,264.567749 203.586029,251.256805 
z"/>
<path fill="#C0A1F5" opacity="1.000000" stroke="none" 
	d="
M215.051132,175.184174 
	C212.903305,175.732529 210.389374,177.192261 208.729645,176.525543 
	C207.517929,176.038788 207.431137,172.751678 207.305603,170.448517 
	C210.195923,171.850830 212.623520,173.517502 215.051132,175.184174 
z"/>
<path fill="#C8B1F5" opacity="1.000000" stroke="none" 
	d="
M215.399109,174.984467 
	C212.623520,173.517502 210.195923,171.850830 207.452576,170.109177 
	C209.193069,169.385193 211.479706,167.835068 213.254013,168.288712 
	C216.259537,169.057159 216.449997,171.999313 215.399109,174.984467 
z"/>
<path fill="#A67FF2" opacity="1.000000" stroke="none" 
	d="
M178.968246,161.983414 
	C179.232529,162.253006 179.496811,162.522598 179.869736,163.058746 
	C177.797272,163.810837 175.298553,165.207733 173.504517,164.582520 
	C170.272415,163.456192 169.537567,160.215897 170.077560,156.484406 
	C170.550415,156.097809 170.944733,156.111099 171.648590,156.502625 
	C172.572403,160.948044 174.001419,163.895935 178.968246,161.983414 
z"/>
<path fill="#A469F9" opacity="1.000000" stroke="none" 
	d="
M102.649216,218.999817 
	C104.183678,219.983185 105.386261,221.014603 106.824203,222.382233 
	C107.024818,223.141190 106.990067,223.563934 106.955307,223.986664 
	C106.662865,224.129196 106.415077,224.327499 106.076004,224.779388 
	C103.780724,224.108063 101.621361,223.238983 99.184593,222.149185 
	C100.043907,220.968262 101.180626,220.008057 102.649216,218.999817 
z"/>
<path fill="#915FF1" opacity="1.000000" stroke="none" 
	d="
M156.819061,212.588379 
	C155.384201,214.089142 153.972168,215.325897 152.424438,216.359406 
	C150.956940,217.339340 149.347244,218.106308 147.404510,218.943207 
	C148.794266,216.667557 150.919205,214.602036 152.282196,212.118362 
	C154.144531,208.724838 155.348648,209.834930 156.819061,212.588379 
z"/>
<path fill="#686B82" opacity="1.000000" stroke="none" 
	d="
M244.342056,294.400024 
	C253.745773,294.036102 263.365295,294.032898 273.445404,294.063965 
	C270.892273,294.399872 267.880737,294.927673 264.864349,294.957062 
	C258.096802,295.023102 251.326828,294.841553 244.342056,294.400024 
z"/>
<path fill="#C8B1F5" opacity="1.000000" stroke="none" 
	d="
M107.037590,274.594177 
	C102.728531,277.162170 101.753632,271.593109 98.185944,271.094421 
	C101.987877,269.010376 105.247742,269.478302 107.037590,274.594177 
z"/>
<path fill="#915FF1" opacity="1.000000" stroke="none" 
	d="
M146.512085,219.028809 
	C144.477142,221.733109 141.727203,222.985916 138.141907,220.507263 
	C140.721954,219.797760 143.416245,219.425201 146.512085,219.028809 
z"/>
<path fill="#915FF1" opacity="1.000000" stroke="none" 
	d="
M119.440475,253.990204 
	C116.540146,254.672607 113.231697,255.333023 109.480728,256.000977 
	C109.038208,256.008484 109.023430,255.608414 109.035454,255.408508 
	C112.375771,254.795151 115.704071,254.381699 119.440475,253.990204 
z"/>
<path fill="#915FF1" opacity="1.000000" stroke="none" 
	d="
M107.086525,308.380402 
	C107.569130,308.021088 107.979698,308.015015 108.752823,308.362671 
	C109.801804,310.757050 110.488213,312.797760 111.174622,314.838440 
	C111.174622,314.838440 111.035538,314.966553 110.965652,315.030243 
	C109.602013,312.973846 108.308243,310.853729 107.086525,308.380402 
z"/>
<path fill="#A67FF2" opacity="1.000000" stroke="none" 
	d="
M211.980896,319.663818 
	C210.732071,318.953400 209.382584,317.931000 207.964935,316.559937 
	C209.224609,317.258148 210.552414,318.304962 211.980896,319.663818 
z"/>
<path fill="#A67FF2" opacity="1.000000" stroke="none" 
	d="
M139.322174,257.892700 
	C139.151688,257.071350 139.295563,256.100433 139.754974,255.082611 
	C139.925842,255.938171 139.781189,256.840637 139.322174,257.892700 
z"/>
<path fill="#AE74F8" opacity="1.000000" stroke="none" 
	d="
M108.651756,284.998962 
	C108.200066,285.622742 107.423637,286.289276 106.298248,286.964783 
	C106.741875,286.329742 107.534447,285.685730 108.651756,284.998962 
z"/>
<path fill="#9C67F6" opacity="1.000000" stroke="none" 
	d="
M191.404205,204.866791 
	C191.198730,204.373886 191.260620,203.779572 191.577759,203.154663 
	C191.779205,203.671188 191.725372,204.218292 191.404205,204.866791 
z"/>
<path fill="#915FF1" opacity="1.000000" stroke="none" 
	d="
M152.345352,239.051727 
	C152.494690,238.738007 152.967117,238.398178 153.741257,238.033905 
	C153.584793,238.348175 153.126617,238.686890 152.345352,239.051727 
z"/>
<path fill="#A67FF2" opacity="1.000000" stroke="none" 
	d="
M140.332352,254.941910 
	C140.026230,254.603180 140.010803,254.142471 139.997559,253.335571 
	C140.181061,252.991669 140.362366,252.993958 140.815857,253.004456 
	C140.933044,253.615082 140.778046,254.217514 140.332352,254.941910 
z"/>
<path fill="#725BCB" opacity="1.000000" stroke="none" 
	d="
M107.650879,215.956207 
	C107.476135,216.248840 106.980965,216.564438 106.179741,216.906738 
	C106.359276,216.615356 106.844864,216.297272 107.650879,215.956207 
z"/>
<path fill="#725BCB" opacity="1.000000" stroke="none" 
	d="
M111.672852,216.101105 
	C111.450424,216.301483 110.899055,216.410660 110.176392,216.359863 
	C110.451363,216.136581 110.897629,216.073242 111.672852,216.101105 
z"/>
<path fill="#A67FF2" opacity="1.000000" stroke="none" 
	d="
M206.950684,315.748993 
	C206.775513,315.792725 206.518890,315.580353 206.115814,315.163574 
	C206.269318,315.137115 206.569275,315.314972 206.950684,315.748993 
z"/>
<path fill="#C0A1F5" opacity="1.000000" stroke="none" 
	d="
M150.921539,180.796844 
	C150.570236,180.873718 150.358429,180.668152 150.092148,180.217392 
	C150.180710,180.023224 150.368973,180.027649 150.839142,180.048065 
	C151.085953,180.229721 151.050888,180.395370 150.921539,180.796844 
z"/>
<path fill="#C8B1F5" opacity="1.000000" stroke="none" 
	d="
M76.685715,279.943298 
	C76.748093,280.139587 76.542717,280.420593 76.111481,280.836304 
	C76.063065,280.656647 76.240517,280.342346 76.685715,279.943298 
z"/>
<path fill="#A67FF2" opacity="1.000000" stroke="none" 
	d="
M212.998581,320.742004 
	C212.804855,320.794159 212.535156,320.576996 212.128510,320.136780 
	C212.301910,320.100067 212.612259,320.286346 212.998581,320.742004 
z"/>
<path fill="#A67FF2" opacity="1.000000" stroke="none" 
	d="
M213.994141,321.740082 
	C213.789322,321.801178 213.517471,321.590240 213.118134,321.151794 
	C213.302811,321.105499 213.614944,321.286804 213.994141,321.740082 
z"/>
<path fill="#A67FF2" opacity="1.000000" stroke="none" 
	d="
M214.245087,322.990662 
	C213.992981,322.805725 213.998047,322.635376 214.008820,322.208832 
	C214.311829,322.131012 214.609131,322.309387 214.961823,322.752502 
	C214.845581,323.013245 214.673920,323.009216 214.245087,322.990662 
z"/>
<path fill="#915FF1" opacity="1.000000" stroke="none" 
	d="
M157.958557,214.677063 
	C157.724930,214.801849 157.489731,214.623993 157.208237,214.178085 
	C157.459229,213.989044 157.724243,214.143845 157.958557,214.677063 
z"/>
<path fill="#C0A1F5" opacity="1.000000" stroke="none" 
	d="
M121.263107,248.962524 
	C121.222023,248.779922 121.438683,248.528458 121.869812,248.147522 
	C121.896469,248.309921 121.708664,248.601776 121.263107,248.962524 
z"/>
<path fill="#725BCB" opacity="1.000000" stroke="none" 
	d="
M108.989578,215.714081 
	C108.872704,215.978378 108.687645,215.985855 108.224976,215.977142 
	C108.272049,215.793045 108.596718,215.625153 108.989578,215.714081 
z"/>
<path fill="#000000" opacity="1.000000" stroke="none" 
	d="
M225.898560,263.582153 
	C225.872299,269.053009 222.530029,271.921997 217.856812,270.919922 
	C213.988052,270.090332 214.819855,266.901428 215.168533,264.553528 
	C215.365402,263.227783 217.331772,261.142639 218.437836,261.181885 
	C220.920639,261.269989 223.363922,262.470795 225.898560,263.582153 
z"/>
<path fill="#000000" opacity="1.000000" stroke="none" 
	d="
M332.911133,271.004913 
	C328.459229,271.326630 327.833588,268.902130 327.993958,265.623871 
	C328.171173,262.001434 330.038940,261.014404 333.491516,260.847260 
	C337.502045,260.653137 339.290802,263.206055 339.409698,266.005615 
	C339.549622,269.300903 336.959961,271.262512 332.911133,271.004913 
z"/>
<path fill="#000000" opacity="1.000000" stroke="none" 
	d="
M179.265060,269.903259 
	C180.193451,272.546539 180.950150,274.871765 181.889938,277.759644 
	C179.206329,278.248474 176.938828,278.661499 173.426208,279.301361 
	C174.968338,274.317352 176.125427,270.577789 177.726562,265.403107 
	C178.513626,267.811371 178.803482,268.698303 179.265060,269.903259 
z"/>
<path fill="#9A60FB" opacity="1.000000" stroke="none" 
	d="
M111.492477,314.946960 
	C110.488213,312.797760 109.801804,310.757050 109.060776,308.359924 
	C110.180557,306.308990 111.834541,304.764221 112.421005,302.886108 
	C113.387627,299.790619 115.163223,298.645050 118.608925,298.986145 
	C119.016815,298.979248 119.507713,298.992676 119.807327,299.356293 
	C122.459000,303.238373 124.716507,306.824860 127.185669,310.259094 
	C130.723541,315.179718 133.308868,314.853333 136.281143,309.515472 
	C137.236450,307.799835 138.819962,306.434052 140.116089,304.908264 
	C140.530167,304.936218 140.944260,304.964172 141.668350,305.017883 
	C147.625916,312.382446 155.423798,316.039490 164.596069,318.038574 
	C166.734711,318.706207 168.477005,319.357208 170.626724,320.019562 
	C170.396042,325.440399 166.122726,327.582336 162.098419,329.926300 
	C161.180191,330.461121 160.167404,330.833527 159.094208,331.619568 
	C153.538940,329.736877 148.087631,327.515320 142.152573,324.846802 
	C138.483459,321.866791 135.509796,318.956879 132.006866,316.988983 
	C130.636612,316.219238 127.680748,317.003815 126.157829,318.083282 
	C124.083565,319.553497 122.689812,321.983826 121.004250,324.002441 
	C117.939606,321.020142 114.874962,318.037842 111.492477,314.946960 
z"/>
<path fill="#A469F9" opacity="1.000000" stroke="none" 
	d="
M140.035645,304.571228 
	C138.819962,306.434052 137.236450,307.799835 136.281143,309.515472 
	C133.308868,314.853333 130.723541,315.179718 127.185669,310.259094 
	C124.716507,306.824860 122.459000,303.238373 120.052811,299.361786 
	C121.691399,297.742523 123.696228,296.738617 124.999802,295.156769 
	C126.726135,293.061920 127.904083,290.515137 129.652588,288.084076 
	C133.310059,293.415131 136.632629,298.824677 140.035645,304.571228 
z"/>
<path fill="#8852FB" opacity="1.000000" stroke="none" 
	d="
M121.166428,324.292023 
	C122.689812,321.983826 124.083565,319.553497 126.157829,318.083282 
	C127.680748,317.003815 130.636612,316.219238 132.006866,316.988983 
	C135.509796,318.956879 138.483459,321.866791 141.836609,324.697815 
	C139.979980,326.223328 137.907593,327.379639 135.945953,328.700439 
	C134.292542,329.813660 132.767807,331.117981 131.085632,332.677155 
	C127.766304,330.204926 124.547447,327.393250 121.166428,324.292023 
z"/>
<path fill="#AE74F8" opacity="1.000000" stroke="none" 
	d="
M136.739349,258.780273 
	C136.653793,262.046295 136.321854,265.095123 135.982849,268.581970 
	C133.585831,268.347900 131.195862,267.675781 128.411285,267.013062 
	C128.339859,264.611816 128.663071,262.201202 128.982452,259.380859 
	C129.549637,257.514252 130.120667,256.057343 130.835327,254.294891 
	C132.816956,255.513931 134.654953,257.038513 136.739349,258.780273 
z"/>
<path fill="#A469F9" opacity="1.000000" stroke="none" 
	d="
M126.489471,252.480286 
	C126.520767,252.465759 126.458176,252.494827 126.489471,252.480286 
z"/>
<path fill="#C0A1F5" opacity="1.000000" stroke="none" 
	d="
M107.318802,224.008148 
	C106.990067,223.563934 107.024818,223.141190 107.092438,222.403259 
	C108.545616,221.482224 109.965912,220.876389 111.753464,220.522736 
	C115.429962,225.192230 118.739204,229.609528 122.048447,234.026840 
	C122.048447,234.026840 122.088104,234.504730 122.100815,234.744019 
	C121.308975,235.305710 120.504417,235.628098 119.382683,236.006470 
	C116.096611,232.720871 113.151344,229.357758 110.141373,226.053619 
	C109.433777,225.276840 108.507797,224.699005 107.318802,224.008148 
z"/>
<path fill="#C8B1F5" opacity="1.000000" stroke="none" 
	d="
M182.621918,189.851135 
	C182.652359,192.771851 182.407715,195.487900 182.095535,198.601776 
	C181.549454,199.280701 181.070892,199.561783 180.311630,199.873230 
	C180.030914,199.903625 180.037430,199.425125 179.971619,198.841003 
	C176.939575,194.847397 173.973373,191.437897 171.264252,187.853882 
	C172.349762,187.047546 173.178192,186.415741 174.006607,185.783936 
	C176.786682,187.071442 179.566757,188.358948 182.621918,189.851135 
z"/>
<path fill="#C0A1F5" opacity="1.000000" stroke="none" 
	d="
M171.007172,188.028397 
	C173.973373,191.437897 176.939575,194.847397 179.963928,198.601868 
	C176.530731,196.730728 173.039413,194.514603 169.247162,192.136581 
	C169.202805,190.870071 169.459366,189.765472 170.113739,188.338242 
	C170.511536,188.015610 171.007172,188.028397 171.007172,188.028397 
z"/>
<path fill="#9C67F6" opacity="1.000000" stroke="none" 
	d="
M171.264252,187.853882 
	C171.007172,188.028397 170.511536,188.015610 170.264008,188.027573 
	C169.037750,186.915558 168.059006,185.791595 167.033264,184.342957 
	C169.775955,181.345520 172.115921,181.436371 173.937454,185.461060 
	C173.178192,186.415741 172.349762,187.047546 171.264252,187.853882 
z"/>
<path fill="#C8B1F5" opacity="1.000000" stroke="none" 
	d="
M140.856934,198.859955 
	C144.714691,199.220718 146.534866,201.093781 145.526855,206.404358 
	C143.597672,203.975281 142.280594,202.316925 140.898697,200.045074 
	C140.829742,199.249222 140.825638,199.066895 140.821548,198.884583 
	C140.821548,198.884583 140.842392,198.858597 140.856934,198.859955 
z"/>
<path fill="#B891FA" opacity="1.000000" stroke="none" 
	d="
M140.528870,198.907593 
	C140.825638,199.066895 140.829742,199.249222 140.799194,199.703308 
	C140.269852,200.260010 139.775177,200.544937 139.007935,200.935867 
	C139.235657,200.338104 139.735931,199.634354 140.528870,198.907593 
z"/>
<path fill="#C8B1F5" opacity="1.000000" stroke="none" 
	d="
M122.215256,233.693420 
	C118.739204,229.609528 115.429962,225.192230 112.073669,220.428268 
	C112.477852,219.960876 112.929077,219.840134 113.711288,219.604080 
	C117.076462,221.258759 120.110649,223.028748 123.339912,225.070602 
	C123.150681,228.014969 122.766365,230.687500 122.215256,233.693420 
z"/>
<path fill="#B891FA" opacity="1.000000" stroke="none" 
	d="
M88.988899,293.570496 
	C88.506393,294.206512 88.010986,294.476013 87.175827,294.526306 
	C83.221802,292.539001 79.607521,290.770905 75.993233,289.002838 
	C75.668839,287.903564 75.344444,286.804260 75.019463,285.357483 
	C77.118454,283.723511 78.774117,283.308258 80.599388,285.875763 
	C81.831978,287.609589 84.248749,288.461792 85.985344,289.891174 
	C87.121452,290.826263 87.988449,292.088318 88.988899,293.570496 
z"/>
<path fill="#B891FA" opacity="1.000000" stroke="none" 
	d="
M178.923813,161.628204 
	C174.001419,163.895935 172.572403,160.948044 171.944351,156.514862 
	C175.891556,155.626541 177.652359,158.087830 178.923813,161.628204 
z"/>
<path fill="#AE74F8" opacity="1.000000" stroke="none" 
	d="
M75.867577,289.302551 
	C79.607521,290.770905 83.221802,292.539001 86.919922,294.643555 
	C80.882576,297.170563 76.243645,294.955414 75.867577,289.302551 
z"/>
</svg>